# 3ds Max Wavefront OBJ Exporter v0.97b - (c)2007 guruware
# File Created: 25.06.2016 18:16:07

mtllib STONE_REAL_TEST.mtl

#
# object Box006
#

v  -13.2937 -8.2364 -508.1792
v  -21.5005 -10.7671 -510.5705
v  -4.2907 -11.2262 -514.1550
v  1.0055 -8.2753 -509.3242
v  18.4324 -13.6416 -514.8188
v  21.8361 -10.5264 -508.0371
v  39.8311 -16.5689 -514.0246
v  41.6454 -13.2576 -505.6583
v  53.9077 -16.3338 -512.0870
v  54.9146 -14.3997 -504.9963
v  59.0746 -14.1887 -510.4895
v  59.9053 -13.8663 -505.1356
v  -30.6851 -13.5642 -515.5077
v  -12.4985 -14.2183 -520.3113
v  11.7912 -15.4101 -523.2430
v  35.8223 -18.1227 -524.2081
v  51.5087 -16.8976 -521.7170
v  57.7169 -13.9971 -519.0367
v  -36.4537 -15.8481 -521.8983
v  -19.6074 -16.4333 -527.8992
v  4.2342 -16.1054 -532.2337
v  29.0221 -17.7579 -534.5571
v  47.4013 -17.3095 -532.3299
v  55.8456 -13.9950 -529.0390
v  -38.3177 -15.4171 -528.1908
v  -23.2749 -15.8264 -533.0386
v  -2.3119 -15.3422 -538.0085
v  21.2585 -16.1043 -542.3658
v  41.0598 -16.2629 -541.7715
v  51.9438 -13.4298 -538.7732
v  -36.1026 -12.8702 -532.0617
v  -24.9684 -12.5272 -535.7518
v  -7.4429 -12.2269 -540.4742
v  13.8137 -12.5606 -544.4868
v  34.1313 -13.6135 -546.5164
v  46.4114 -12.5694 -544.6940
v  -14.2270 13.1144 -504.4564
v  -3.9451 13.1844 -505.7716
v  -9.4027 14.9049 -509.2029
v  -20.8470 14.2067 -506.4128
v  11.7792 12.5303 -505.0004
v  6.1747 14.7204 -510.4329
v  28.6552 12.0830 -502.4850
v  23.7732 12.9879 -508.9715
v  43.5837 13.0598 -500.6069
v  40.4905 12.0323 -506.9961
v  51.9970 12.9614 -500.9697
v  51.5111 11.3085 -506.4559
v  -15.8113 16.6042 -513.3670
v  -27.8820 14.9557 -510.0763
v  -0.2775 17.3019 -514.8573
v  18.7149 15.4440 -515.1475
v  37.4541 13.1253 -514.7029
v  50.4291 10.4022 -514.5018
v  -21.1598 17.6080 -518.2646
v  -32.1752 15.7220 -515.3513
v  -6.4818 18.7338 -519.4986
v  12.7940 17.5844 -520.3717
v  32.8557 14.5065 -521.7786
v  47.4885 10.8998 -523.0547
v  -25.1498 17.5779 -524.8079
v  -33.7223 15.9284 -521.8094
v  -12.5818 18.2094 -526.4177
v  6.5793 17.6732 -527.2170
v  27.2302 14.6265 -530.4799
v  42.6413 11.0630 -531.7513
v  -28.5729 15.6340 -531.8079
v  -34.1922 15.6746 -527.4531
v  -17.9068 15.2194 -536.9170
v  1.2701 13.5536 -541.0289
v  22.8915 11.0504 -541.8057
v  37.5756 10.4194 -539.4545
v  1.5627 -4.1575 -505.0673
v  -16.1724 -5.3814 -505.3301
v  22.1167 -5.3388 -503.7911
v  41.1632 -7.7479 -501.0759
v  54.5628 -9.4213 -500.5771
v  60.6254 -9.6940 -502.4707
v  0.5930 1.1954 -501.6487
v  -17.6793 -0.1501 -502.5923
v  20.7141 0.6699 -501.0972
v  39.2675 -0.9381 -499.0343
v  53.1047 -2.4954 -497.9148
v  60.5126 -2.9511 -500.0231
v  -0.3586 6.5503 -500.7178
v  -17.4313 5.7330 -501.4917
v  18.5434 6.1801 -499.1896
v  36.4591 5.5034 -497.2394
v  50.7657 4.7422 -496.5626
v  60.4522 4.4615 -497.8756
v  -1.4793 10.6700 -502.3009
v  -15.9945 10.5528 -502.4364
v  15.7298 10.2684 -500.6004
v  32.9446 10.5131 -497.7367
v  47.8543 11.0137 -496.1333
v  57.5627 10.8725 -498.1229
v  60.3596 -9.1779 -508.4481
v  59.3795 -8.7829 -516.7176
v  58.0862 -8.4520 -526.2108
v  55.3594 -7.9868 -536.3784
v  46.9595 -7.6054 -544.4849
v  60.8501 -2.7684 -506.6719
v  60.3423 -2.5905 -515.0081
v  59.1630 -2.0194 -524.2906
v  56.0403 -1.2307 -534.3537
v  46.8488 -0.7095 -543.5792
v  61.1947 3.6701 -505.5031
v  60.2963 3.3358 -514.1402
v  58.8406 4.0057 -523.2397
v  55.2714 5.4208 -532.8312
v  45.6960 6.0159 -542.2829
v  58.8247 9.0550 -505.3870
v  57.4754 7.7840 -514.1218
v  55.7368 8.3280 -523.0551
v  51.3123 9.1762 -532.1520
v  41.9839 9.3707 -540.8174
v  29.6753 -8.2218 -547.2084
v  8.2500 -7.7683 -544.3021
v  -11.6340 -7.8060 -540.9219
v  -27.8478 -8.1270 -536.4396
v  -40.2805 -9.0463 -531.2548
v  26.7241 -1.6734 -546.9516
v  3.9617 -2.3142 -544.7177
v  -15.3891 -2.6174 -541.3760
v  -30.7942 -2.6729 -536.7863
v  -42.1021 -2.5508 -529.5775
v  24.3310 4.5074 -546.9039
v  0.8246 3.7114 -545.2765
v  -18.2671 3.4981 -541.6755
v  -32.3563 4.0187 -536.6901
v  -41.6212 4.6719 -528.7575
v  22.5383 8.4853 -545.8061
v  -0.4027 9.2668 -545.6500
v  -19.4882 10.0876 -541.4891
v  -31.5524 10.9925 -535.7001
v  -38.2139 11.5058 -528.2245
v  -44.8317 -10.5974 -523.8132
v  -42.9579 -11.5221 -516.0992
v  -38.4025 -10.6527 -510.1414
v  -29.4705 -7.9639 -506.8410
v  -47.0426 -3.2475 -520.3287
v  -45.9579 -4.5340 -511.6220
v  -41.2019 -4.4857 -505.8254
v  -31.8612 -2.4461 -503.7634
v  -45.1020 4.3887 -518.6414
v  -45.4798 3.9196 -509.6290
v  -40.8170 3.8571 -504.1122
v  -31.1980 4.4953 -502.3092
v  -40.7529 11.6192 -519.6649
v  -40.4170 11.3024 -511.8340
v  -36.2328 11.1293 -506.2371
v  -27.6704 10.7291 -503.4412
# 152 vertices

vn 0.0522 -0.7625 0.6449
vn 0.0455 -0.8402 0.5403
vn -0.0041 -0.8947 0.4467
vn -0.0225 -0.7769 0.6291
vn -0.1050 -0.9158 0.3876
vn -0.1366 -0.7714 0.6216
vn -0.0763 -0.9578 0.2772
vn -0.1292 -0.8011 0.5843
vn 0.1626 -0.9784 0.1278
vn 0.0605 -0.8438 0.5332
vn 0.7567 -0.6519 -0.0491
vn 0.5818 -0.7353 0.3475
vn -0.0131 -0.9183 0.3955
vn 0.0182 -0.9559 0.2931
vn -0.0603 -0.9757 0.2105
vn -0.0290 -0.9948 0.0979
vn 0.2398 -0.9704 -0.0268
vn 0.7639 -0.6318 -0.1313
vn -0.1867 -0.9682 0.1666
vn -0.0011 -0.9980 0.0631
vn -0.0371 -0.9993 0.0046
vn -0.0190 -0.9982 -0.0566
vn 0.2219 -0.9640 -0.1467
vn 0.7241 -0.6489 -0.2334
vn -0.4104 -0.8451 -0.3426
vn -0.1147 -0.9080 -0.4031
vn -0.0977 -0.9044 -0.4154
vn -0.0607 -0.9112 -0.4074
vn 0.1538 -0.8957 -0.4172
vn 0.6229 -0.5860 -0.5182
vn -0.4226 -0.5136 -0.7468
vn -0.2441 -0.5219 -0.8173
vn -0.1865 -0.5122 -0.8383
vn -0.1285 -0.5032 -0.8545
vn 0.0646 -0.4848 -0.8722
vn 0.4157 -0.3305 -0.8473
vn -0.0003 0.7961 0.6051
vn 0.0216 0.8679 0.4961
vn 0.0201 0.9268 0.3749
vn -0.0510 0.8647 0.4998
vn -0.0022 0.9203 0.3912
vn 0.0421 0.9383 0.3432
vn -0.0311 0.9605 0.2763
vn 0.0486 0.9796 0.1949
vn 0.0039 0.9868 0.1618
vn 0.0666 0.9977 -0.0159
vn 0.1708 0.9852 -0.0119
vn 0.2253 0.9603 -0.1645
vn -0.0263 0.9478 0.3177
vn -0.1419 0.9228 0.3582
vn 0.0383 0.9440 0.3277
vn 0.0951 0.9654 0.2427
vn 0.1465 0.9853 0.0877
vn 0.2565 0.9650 -0.0540
vn -0.0836 0.9844 0.1549
vn -0.2568 0.9482 0.1869
vn 0.0071 0.9929 0.1189
vn 0.1016 0.9928 0.0626
vn 0.1819 0.9832 -0.0100
vn 0.2553 0.9654 -0.0537
vn -0.1175 0.9908 -0.0671
vn -0.3618 0.9321 -0.0139
vn -0.0206 0.9889 -0.1473
vn 0.0729 0.9782 -0.1944
vn 0.1494 0.9673 -0.2047
vn 0.2022 0.9648 -0.1677
vn -0.2669 0.8730 -0.4081
vn -0.4469 0.8531 -0.2693
vn -0.1136 0.8662 -0.4866
vn 0.0131 0.8685 -0.4955
vn 0.0964 0.8932 -0.4393
vn 0.1461 0.9330 -0.3287
vn -0.0273 -0.5944 0.8037
vn 0.0243 -0.6069 0.7944
vn -0.1261 -0.5443 0.8293
vn -0.1360 -0.5076 0.8508
vn 0.0551 -0.4928 0.8683
vn 0.7753 -0.3613 0.5180
vn -0.0371 -0.3620 0.9314
vn -0.0194 -0.3420 0.9395
vn -0.0997 -0.3686 0.9242
vn -0.1149 -0.3290 0.9373
vn 0.0660 -0.2811 0.9574
vn 0.7660 -0.1829 0.6162
vn -0.0539 0.0346 0.9979
vn -0.0504 0.0305 0.9983
vn -0.1020 -0.0483 0.9936
vn -0.1062 -0.1317 0.9856
vn 0.0489 -0.1087 0.9929
vn 0.7348 0.0753 0.6741
vn -0.0262 0.5713 0.8203
vn -0.0406 0.4988 0.8657
vn -0.0791 0.5985 0.7971
vn -0.1079 0.5445 0.8318
vn 0.0183 0.5400 0.8415
vn 0.5061 0.7583 0.4110
vn 0.9886 -0.1257 -0.0822
vn 0.9757 -0.1744 -0.1324
vn 0.9562 -0.1879 -0.2243
vn 0.8486 -0.0847 -0.5221
vn 0.4508 0.0427 -0.8916
vn 0.9988 -0.0422 -0.0234
vn 0.9928 -0.0418 -0.1122
vn 0.9763 0.0079 -0.2163
vn 0.8520 0.1199 -0.5096
vn 0.4526 0.1666 -0.8760
vn 0.9768 0.2122 -0.0284
vn 0.9531 0.2753 -0.1254
vn 0.9073 0.3678 -0.2037
vn 0.7607 0.4624 -0.4555
vn 0.4171 0.4107 -0.8107
vn 0.6716 0.7287 -0.1337
vn 0.6252 0.7707 -0.1230
vn 0.5572 0.8221 -0.1167
vn 0.4381 0.8599 -0.2619
vn 0.2618 0.7908 -0.5533
vn 0.0176 -0.0304 -0.9994
vn -0.1439 -0.1666 -0.9755
vn -0.2124 -0.2420 -0.9467
vn -0.3263 -0.2275 -0.9174
vn -0.6109 -0.2368 -0.7555
vn 0.0349 0.0279 -0.9990
vn -0.1334 -0.1297 -0.9825
vn -0.2283 -0.1797 -0.9568
vn -0.4119 -0.1107 -0.9044
vn -0.7383 0.0179 -0.6742
vn 0.0617 0.1486 -0.9869
vn -0.1237 -0.0564 -0.9907
vn -0.2665 -0.0663 -0.9615
vn -0.4967 0.0594 -0.8659
vn -0.7860 0.2501 -0.5653
vn 0.0778 0.5787 -0.8118
vn -0.0819 0.4123 -0.9073
vn -0.2597 0.3874 -0.8845
vn -0.4780 0.4575 -0.7497
vn -0.6910 0.5814 -0.4294
vn -0.8316 -0.4958 -0.2503
vn -0.6005 -0.7454 0.2893
vn -0.2251 -0.7712 0.5954
vn -0.0111 -0.6626 0.7488
vn -0.9810 -0.0297 -0.1917
vn -0.8936 -0.2654 0.3618
vn -0.4435 -0.3987 0.8027
vn -0.0797 -0.3614 0.9290
vn -0.9251 0.3495 -0.1484
vn -0.8863 0.3164 0.3381
vn -0.5039 0.1787 0.8450
vn -0.1366 0.0506 0.9893
vn -0.7187 0.6920 -0.0679
vn -0.5937 0.7644 0.2514
vn -0.3567 0.7101 0.6071
vn -0.1420 0.5512 0.8222
# 152 vertex normals

vt 1.0000 0.0000 0.0000
vt 1.0000 0.2000 0.0000
vt 0.8000 0.2000 0.0000
vt 0.8000 0.0000 0.0000
vt 0.6000 0.2000 0.0000
vt 0.6000 0.0000 0.0000
vt 0.4000 0.2000 0.0000
vt 0.4000 0.0000 0.0000
vt 0.2000 0.2000 0.0000
vt 0.2000 0.0000 0.0000
vt 0.0000 0.2000 0.0000
vt 0.0000 0.0000 0.0000
vt 1.0000 0.4000 0.0000
vt 0.8000 0.4000 0.0000
vt 0.6000 0.4000 0.0000
vt 0.4000 0.4000 0.0000
vt 0.2000 0.4000 0.0000
vt 0.0000 0.4000 0.0000
vt 1.0000 0.6000 0.0000
vt 0.8000 0.6000 0.0000
vt 0.6000 0.6000 0.0000
vt 0.4000 0.6000 0.0000
vt 0.2000 0.6000 0.0000
vt 0.0000 0.6000 0.0000
vt 1.0000 0.8000 0.0000
vt 0.8000 0.8000 0.0000
vt 0.6000 0.8000 0.0000
vt 0.4000 0.8000 0.0000
vt 0.2000 0.8000 0.0000
vt 0.0000 0.8000 0.0000
vt 1.0000 1.0000 0.0000
vt 0.8000 1.0000 0.0000
vt 0.6000 1.0000 0.0000
vt 0.4000 1.0000 0.0000
vt 0.2000 1.0000 0.0000
vt 0.0000 1.0000 0.0000
# 36 texture coords

g Box006
usemtl Default_Material
s off
f 1/1/1 2/2/2 3/3/3 4/4/4 
f 4/4/4 3/3/3 5/5/5 6/6/6 
f 6/6/6 5/5/5 7/7/7 8/8/8 
f 8/8/8 7/7/7 9/9/9 10/10/10 
f 10/10/10 9/9/9 11/11/11 12/12/12 
f 2/2/2 13/13/13 14/14/14 3/3/3 
f 3/3/3 14/14/14 15/15/15 5/5/5 
f 5/5/5 15/15/15 16/16/16 7/7/7 
f 7/7/7 16/16/16 17/17/17 9/9/9 
f 9/9/9 17/17/17 18/18/18 11/11/11 
f 13/13/13 19/19/19 20/20/20 14/14/14 
f 14/14/14 20/20/20 21/21/21 15/15/15 
f 15/15/15 21/21/21 22/22/22 16/16/16 
f 16/16/16 22/22/22 23/23/23 17/17/17 
f 17/17/17 23/23/23 24/24/24 18/18/18 
f 19/19/19 25/25/25 26/26/26 20/20/20 
f 20/20/20 26/26/26 27/27/27 21/21/21 
f 21/21/21 27/27/27 28/28/28 22/22/22 
f 22/22/22 28/28/28 29/29/29 23/23/23 
f 23/23/23 29/29/29 30/30/30 24/24/24 
f 25/25/25 31/31/31 32/32/32 26/26/26 
f 26/26/26 32/32/32 33/33/33 27/27/27 
f 27/27/27 33/33/33 34/34/34 28/28/28 
f 28/28/28 34/34/34 35/35/35 29/29/29 
f 29/29/29 35/35/35 36/36/36 30/30/30 
f 37/12/37 38/10/38 39/9/39 40/11/40 
f 38/10/38 41/8/41 42/7/42 39/9/39 
f 41/8/41 43/6/43 44/5/44 42/7/42 
f 43/6/43 45/4/45 46/3/46 44/5/44 
f 45/4/45 47/1/47 48/2/48 46/3/46 
f 40/11/40 39/9/39 49/17/49 50/18/50 
f 39/9/39 42/7/42 51/16/51 49/17/49 
f 42/7/42 44/5/44 52/15/52 51/16/51 
f 44/5/44 46/3/46 53/14/53 52/15/52 
f 46/3/46 48/2/48 54/13/54 53/14/53 
f 50/18/50 49/17/49 55/23/55 56/24/56 
f 49/17/49 51/16/51 57/22/57 55/23/55 
f 51/16/51 52/15/52 58/21/58 57/22/57 
f 52/15/52 53/14/53 59/20/59 58/21/58 
f 53/14/53 54/13/54 60/19/60 59/20/59 
f 56/24/56 55/23/55 61/29/61 62/30/62 
f 55/23/55 57/22/57 63/28/63 61/29/61 
f 57/22/57 58/21/58 64/27/64 63/28/63 
f 58/21/58 59/20/59 65/26/65 64/27/64 
f 59/20/59 60/19/60 66/25/66 65/26/65 
f 62/30/62 61/29/61 67/35/67 68/36/68 
f 61/29/61 63/28/63 69/34/69 67/35/67 
f 63/28/63 64/27/64 70/33/70 69/34/69 
f 64/27/64 65/26/65 71/32/71 70/33/70 
f 65/26/65 66/25/66 72/31/72 71/32/71 
f 1/12/1 4/10/4 73/9/73 74/11/74 
f 4/10/4 6/8/6 75/7/75 73/9/73 
f 6/8/6 8/6/8 76/5/76 75/7/75 
f 8/6/8 10/4/10 77/3/77 76/5/76 
f 10/4/10 12/1/12 78/2/78 77/3/77 
f 74/11/74 73/9/73 79/17/79 80/18/80 
f 73/9/73 75/7/75 81/16/81 79/17/79 
f 75/7/75 76/5/76 82/15/82 81/16/81 
f 76/5/76 77/3/77 83/14/83 82/15/82 
f 77/3/77 78/2/78 84/13/84 83/14/83 
f 80/18/80 79/17/79 85/23/85 86/24/86 
f 79/17/79 81/16/81 87/22/87 85/23/85 
f 81/16/81 82/15/82 88/21/88 87/22/87 
f 82/15/82 83/14/83 89/20/89 88/21/88 
f 83/14/83 84/13/84 90/19/90 89/20/89 
f 86/24/86 85/23/85 91/29/91 92/30/92 
f 85/23/85 87/22/87 93/28/93 91/29/91 
f 87/22/87 88/21/88 94/27/94 93/28/93 
f 88/21/88 89/20/89 95/26/95 94/27/94 
f 89/20/89 90/19/90 96/25/96 95/26/95 
f 92/30/92 91/29/91 38/35/38 37/36/37 
f 91/29/91 93/28/93 41/34/41 38/35/38 
f 93/28/93 94/27/94 43/33/43 41/34/41 
f 94/27/94 95/26/95 45/32/45 43/33/43 
f 95/26/95 96/25/96 47/31/47 45/32/45 
f 12/12/12 11/10/11 97/9/97 78/11/78 
f 11/10/11 18/8/18 98/7/98 97/9/97 
f 18/8/18 24/6/24 99/5/99 98/7/98 
f 24/6/24 30/4/30 100/3/100 99/5/99 
f 30/4/30 36/1/36 101/2/101 100/3/100 
f 78/11/78 97/9/97 102/17/102 84/18/84 
f 97/9/97 98/7/98 103/16/103 102/17/102 
f 98/7/98 99/5/99 104/15/104 103/16/103 
f 99/5/99 100/3/100 105/14/105 104/15/104 
f 100/3/100 101/2/101 106/13/106 105/14/105 
f 84/18/84 102/17/102 107/23/107 90/24/90 
f 102/17/102 103/16/103 108/22/108 107/23/107 
f 103/16/103 104/15/104 109/21/109 108/22/108 
f 104/15/104 105/14/105 110/20/110 109/21/109 
f 105/14/105 106/13/106 111/19/111 110/20/110 
f 90/24/90 107/23/107 112/29/112 96/30/96 
f 107/23/107 108/22/108 113/28/113 112/29/112 
f 108/22/108 109/21/109 114/27/114 113/28/113 
f 109/21/109 110/20/110 115/26/115 114/27/114 
f 110/20/110 111/19/111 116/25/116 115/26/115 
f 96/30/96 112/29/112 48/35/48 47/36/47 
f 112/29/112 113/28/113 54/34/54 48/35/48 
f 113/28/113 114/27/114 60/33/60 54/34/54 
f 114/27/114 115/26/115 66/32/66 60/33/60 
f 115/26/115 116/25/116 72/31/72 66/32/66 
f 36/12/36 35/10/35 117/9/117 101/11/101 
f 35/10/35 34/8/34 118/7/118 117/9/117 
f 34/8/34 33/6/33 119/5/119 118/7/118 
f 33/6/33 32/4/32 120/3/120 119/5/119 
f 32/4/32 31/1/31 121/2/121 120/3/120 
f 101/11/101 117/9/117 122/17/122 106/18/106 
f 117/9/117 118/7/118 123/16/123 122/17/122 
f 118/7/118 119/5/119 124/15/124 123/16/123 
f 119/5/119 120/3/120 125/14/125 124/15/124 
f 120/3/120 121/2/121 126/13/126 125/14/125 
f 106/18/106 122/17/122 127/23/127 111/24/111 
f 122/17/122 123/16/123 128/22/128 127/23/127 
f 123/16/123 124/15/124 129/21/129 128/22/128 
f 124/15/124 125/14/125 130/20/130 129/21/129 
f 125/14/125 126/13/126 131/19/131 130/20/130 
f 111/24/111 127/23/127 132/29/132 116/30/116 
f 127/23/127 128/22/128 133/28/133 132/29/132 
f 128/22/128 129/21/129 134/27/134 133/28/133 
f 129/21/129 130/20/130 135/26/135 134/27/134 
f 130/20/130 131/19/131 136/25/136 135/26/135 
f 116/30/116 132/29/132 71/35/71 72/36/72 
f 132/29/132 133/28/133 70/34/70 71/35/71 
f 133/28/133 134/27/134 69/33/69 70/34/70 
f 134/27/134 135/26/135 67/32/67 69/33/69 
f 135/26/135 136/25/136 68/31/68 67/32/67 
f 31/12/31 25/10/25 137/9/137 121/11/121 
f 25/10/25 19/8/19 138/7/138 137/9/137 
f 19/8/19 13/6/13 139/5/139 138/7/138 
f 13/6/13 2/4/2 140/3/140 139/5/139 
f 2/4/2 1/1/1 74/2/74 140/3/140 
f 121/11/121 137/9/137 141/17/141 126/18/126 
f 137/9/137 138/7/138 142/16/142 141/17/141 
f 138/7/138 139/5/139 143/15/143 142/16/142 
f 139/5/139 140/3/140 144/14/144 143/15/143 
f 140/3/140 74/2/74 80/13/80 144/14/144 
f 126/18/126 141/17/141 145/23/145 131/24/131 
f 141/17/141 142/16/142 146/22/146 145/23/145 
f 142/16/142 143/15/143 147/21/147 146/22/146 
f 143/15/143 144/14/144 148/20/148 147/21/147 
f 144/14/144 80/13/80 86/19/86 148/20/148 
f 131/24/131 145/23/145 149/29/149 136/30/136 
f 145/23/145 146/22/146 150/28/150 149/29/149 
f 146/22/146 147/21/147 151/27/151 150/28/150 
f 147/21/147 148/20/148 152/26/152 151/27/151 
f 148/20/148 86/19/86 92/25/92 152/26/152 
f 136/30/136 149/29/149 62/35/62 68/36/68 
f 149/29/149 150/28/150 56/34/56 62/35/62 
f 150/28/150 151/27/151 50/33/50 56/34/56 
f 151/27/151 152/26/152 40/32/40 50/33/50 
f 152/26/152 92/25/92 37/31/37 40/32/40 
# 150 polygons

